# xmcd CD database file
#
# Track frame offsets:
#	150
#	17440
#	36988
#	54233
#
# Disc length: 980 seconds
#
# Revision: 0
# Processed by: cddbd v1.5PL3 Copyright (c) Steve Scherf et al.
# Submitted via: CDex 1.51
#
DISCID=2503d204
DTITLE=JAM Project - エクスドライバー
DYEAR=1900
DGENRE=Anime
TTITLE0=疾風になれ
TTITLE1=CRAZY REVOLUTION
TTITLE2=疾風になれ Off Vocal Varsion
TTITLE3=CRAZY REVOLUTION Off Vocal Varsion
EXTD=
EXTT0=
EXTT1=
EXTT2=
EXTT3=
PLAYORDER=
